<svg width="535" height="16" viewBox="0 0 535 16" fill="none" xmlns="http://www.w3.org/2000/svg">
<path d="M4.82617 9.09668H2.16699V8.02344H4.82617C5.34115 8.02344 5.75814 7.94141 6.07715 7.77734C6.39616 7.61328 6.62858 7.38542 6.77441 7.09375C6.9248 6.80208 7 6.4694 7 6.0957C7 5.75391 6.9248 5.43262 6.77441 5.13184C6.62858 4.83105 6.39616 4.58952 6.07715 4.40723C5.75814 4.22038 5.34115 4.12695 4.82617 4.12695H2.47461V13H1.15527V3.04688H4.82617C5.57812 3.04688 6.21387 3.17676 6.7334 3.43652C7.25293 3.69629 7.64714 4.05632 7.91602 4.5166C8.1849 4.97233 8.31934 5.49414 8.31934 6.08203C8.31934 6.72005 8.1849 7.26465 7.91602 7.71582C7.64714 8.16699 7.25293 8.51107 6.7334 8.74805C6.21387 8.98047 5.57812 9.09668 4.82617 9.09668ZM11.0605 6.76562V13H9.7959V5.60352H11.0264L11.0605 6.76562ZM13.3711 5.5625L13.3643 6.73828C13.2594 6.71549 13.1592 6.70182 13.0635 6.69727C12.9723 6.68815 12.8675 6.68359 12.749 6.68359C12.4574 6.68359 12.1999 6.72917 11.9766 6.82031C11.7533 6.91146 11.5641 7.03906 11.4092 7.20312C11.2542 7.36719 11.1312 7.56315 11.04 7.79102C10.9535 8.01432 10.8965 8.26042 10.8691 8.5293L10.5137 8.73438C10.5137 8.28776 10.557 7.86849 10.6436 7.47656C10.7347 7.08464 10.8737 6.73828 11.0605 6.4375C11.2474 6.13216 11.4844 5.89518 11.7715 5.72656C12.0632 5.55339 12.4095 5.4668 12.8105 5.4668C12.9017 5.4668 13.0065 5.47819 13.125 5.50098C13.2435 5.51921 13.3255 5.53971 13.3711 5.5625ZM15.9141 5.60352V13H14.6426V5.60352H15.9141ZM14.5469 3.6416C14.5469 3.43652 14.6084 3.26335 14.7314 3.12207C14.859 2.98079 15.0459 2.91016 15.292 2.91016C15.5335 2.91016 15.7181 2.98079 15.8457 3.12207C15.9779 3.26335 16.0439 3.43652 16.0439 3.6416C16.0439 3.83757 15.9779 4.00618 15.8457 4.14746C15.7181 4.28418 15.5335 4.35254 15.292 4.35254C15.0459 4.35254 14.859 4.28418 14.7314 4.14746C14.6084 4.00618 14.5469 3.83757 14.5469 3.6416ZM20.1934 11.8584L22.2168 5.60352H23.5088L20.8496 13H20.002L20.1934 11.8584ZM18.5049 5.60352L20.5898 11.8926L20.7334 13H19.8857L17.2061 5.60352H18.5049ZM28.9775 11.7354V7.92773C28.9775 7.63607 28.9183 7.38314 28.7998 7.16895C28.6859 6.9502 28.5127 6.78158 28.2803 6.66309C28.0479 6.5446 27.7607 6.48535 27.4189 6.48535C27.0999 6.48535 26.8197 6.54004 26.5781 6.64941C26.3411 6.75879 26.1543 6.90234 26.0176 7.08008C25.8854 7.25781 25.8193 7.44922 25.8193 7.6543H24.5547C24.5547 7.38997 24.623 7.12793 24.7598 6.86816C24.8965 6.6084 25.0924 6.3737 25.3477 6.16406C25.6074 5.94987 25.9173 5.78125 26.2773 5.6582C26.6419 5.5306 27.0475 5.4668 27.4941 5.4668C28.0319 5.4668 28.5059 5.55794 28.916 5.74023C29.3307 5.92253 29.6543 6.19824 29.8867 6.56738C30.1237 6.93197 30.2422 7.38997 30.2422 7.94141V11.3867C30.2422 11.6328 30.2627 11.8949 30.3037 12.1729C30.3493 12.4508 30.4154 12.6901 30.502 12.8906V13H29.1826C29.1188 12.8542 29.0687 12.6605 29.0322 12.4189C28.9958 12.1729 28.9775 11.945 28.9775 11.7354ZM29.1963 8.51562L29.21 9.4043H27.9316C27.5716 9.4043 27.2503 9.43392 26.9678 9.49316C26.6852 9.54785 26.4482 9.63216 26.2568 9.74609C26.0654 9.86003 25.9196 10.0036 25.8193 10.1768C25.7191 10.3454 25.6689 10.5436 25.6689 10.7715C25.6689 11.0039 25.7214 11.2158 25.8262 11.4072C25.931 11.5986 26.0882 11.7513 26.2979 11.8652C26.512 11.9746 26.7741 12.0293 27.084 12.0293C27.4714 12.0293 27.8132 11.9473 28.1094 11.7832C28.4056 11.6191 28.6403 11.4186 28.8135 11.1816C28.9912 10.9447 29.0869 10.7145 29.1006 10.4912L29.6406 11.0996C29.6087 11.291 29.5221 11.5029 29.3809 11.7354C29.2396 11.9678 29.0505 12.1911 28.8135 12.4053C28.5811 12.6149 28.3031 12.7904 27.9795 12.9316C27.6605 13.0684 27.3005 13.1367 26.8994 13.1367C26.3981 13.1367 25.9583 13.0387 25.5801 12.8428C25.2064 12.6468 24.9147 12.3848 24.7051 12.0566C24.5 11.724 24.3975 11.3525 24.3975 10.9424C24.3975 10.5459 24.4749 10.1973 24.6299 9.89648C24.7848 9.59115 25.0081 9.33822 25.2998 9.1377C25.5915 8.93262 25.9424 8.77767 26.3525 8.67285C26.7627 8.56803 27.2207 8.51562 27.7266 8.51562H29.1963ZM35.1914 12.0977C35.4922 12.0977 35.7702 12.0361 36.0254 11.9131C36.2806 11.79 36.4902 11.6214 36.6543 11.4072C36.8184 11.1885 36.9118 10.9401 36.9346 10.6621H38.1377C38.1149 11.0996 37.9668 11.5075 37.6934 11.8857C37.4245 12.2594 37.0713 12.5625 36.6338 12.7949C36.1963 13.0228 35.7155 13.1367 35.1914 13.1367C34.6354 13.1367 34.1501 13.0387 33.7354 12.8428C33.3252 12.6468 32.9834 12.3779 32.71 12.0361C32.4411 11.6943 32.2383 11.3024 32.1016 10.8604C31.9694 10.4137 31.9033 9.94206 31.9033 9.44531V9.1582C31.9033 8.66146 31.9694 8.19206 32.1016 7.75C32.2383 7.30339 32.4411 6.90918 32.71 6.56738C32.9834 6.22559 33.3252 5.95671 33.7354 5.76074C34.1501 5.56478 34.6354 5.4668 35.1914 5.4668C35.7702 5.4668 36.276 5.58529 36.709 5.82227C37.1419 6.05469 37.4814 6.3737 37.7275 6.7793C37.9782 7.18034 38.1149 7.63607 38.1377 8.14648H36.9346C36.9118 7.84115 36.8252 7.56543 36.6748 7.31934C36.529 7.07324 36.3285 6.87728 36.0732 6.73145C35.8226 6.58105 35.5286 6.50586 35.1914 6.50586C34.804 6.50586 34.4782 6.58333 34.2139 6.73828C33.9541 6.88867 33.7467 7.09375 33.5918 7.35352C33.4414 7.60872 33.332 7.89355 33.2637 8.20801C33.1999 8.5179 33.168 8.83464 33.168 9.1582V9.44531C33.168 9.76888 33.1999 10.0879 33.2637 10.4023C33.3275 10.7168 33.4346 11.0016 33.585 11.2568C33.7399 11.512 33.9473 11.7171 34.207 11.8721C34.4714 12.0225 34.7995 12.0977 35.1914 12.0977ZM41.6377 12.2344L43.6953 5.60352H45.0488L42.082 14.1416C42.0137 14.3239 41.9225 14.5199 41.8086 14.7295C41.6992 14.9437 41.5579 15.1465 41.3848 15.3379C41.2116 15.5293 41.002 15.6842 40.7559 15.8027C40.5143 15.9258 40.2249 15.9873 39.8877 15.9873C39.7874 15.9873 39.6598 15.9736 39.5049 15.9463C39.3499 15.9189 39.2406 15.8962 39.1768 15.8779L39.1699 14.8525C39.2064 14.8571 39.2633 14.8617 39.3408 14.8662C39.4229 14.8753 39.4798 14.8799 39.5117 14.8799C39.7988 14.8799 40.0426 14.8411 40.2432 14.7637C40.4437 14.6908 40.6123 14.5654 40.749 14.3877C40.8903 14.2145 41.0111 13.9753 41.1113 13.6699L41.6377 12.2344ZM40.127 5.60352L42.0479 11.3457L42.376 12.6787L41.4668 13.1436L38.7461 5.60352H40.127ZM53.5254 9.09668H50.8662V8.02344H53.5254C54.0404 8.02344 54.4574 7.94141 54.7764 7.77734C55.0954 7.61328 55.3278 7.38542 55.4736 7.09375C55.624 6.80208 55.6992 6.4694 55.6992 6.0957C55.6992 5.75391 55.624 5.43262 55.4736 5.13184C55.3278 4.83105 55.0954 4.58952 54.7764 4.40723C54.4574 4.22038 54.0404 4.12695 53.5254 4.12695H51.1738V13H49.8545V3.04688H53.5254C54.2773 3.04688 54.9131 3.17676 55.4326 3.43652C55.9521 3.69629 56.3464 4.05632 56.6152 4.5166C56.8841 4.97233 57.0186 5.49414 57.0186 6.08203C57.0186 6.72005 56.8841 7.26465 56.6152 7.71582C56.3464 8.16699 55.9521 8.51107 55.4326 8.74805C54.9131 8.98047 54.2773 9.09668 53.5254 9.09668ZM58.0645 9.38379V9.22656C58.0645 8.69336 58.1419 8.19889 58.2969 7.74316C58.4518 7.28288 58.6751 6.88411 58.9668 6.54688C59.2585 6.20508 59.6117 5.94076 60.0264 5.75391C60.4411 5.5625 60.9059 5.4668 61.4209 5.4668C61.9404 5.4668 62.4076 5.5625 62.8223 5.75391C63.2415 5.94076 63.597 6.20508 63.8887 6.54688C64.1849 6.88411 64.4105 7.28288 64.5654 7.74316C64.7204 8.19889 64.7979 8.69336 64.7979 9.22656V9.38379C64.7979 9.91699 64.7204 10.4115 64.5654 10.8672C64.4105 11.3229 64.1849 11.7217 63.8887 12.0635C63.597 12.4007 63.2438 12.665 62.8291 12.8564C62.4189 13.0433 61.9541 13.1367 61.4346 13.1367C60.915 13.1367 60.4479 13.0433 60.0332 12.8564C59.6185 12.665 59.263 12.4007 58.9668 12.0635C58.6751 11.7217 58.4518 11.3229 58.2969 10.8672C58.1419 10.4115 58.0645 9.91699 58.0645 9.38379ZM59.3291 9.22656V9.38379C59.3291 9.75293 59.3724 10.1016 59.459 10.4297C59.5456 10.7533 59.6755 11.0404 59.8486 11.291C60.0264 11.5417 60.2474 11.7399 60.5117 11.8857C60.776 12.027 61.0837 12.0977 61.4346 12.0977C61.7809 12.0977 62.084 12.027 62.3438 11.8857C62.6081 11.7399 62.8268 11.5417 63 11.291C63.1732 11.0404 63.3031 10.7533 63.3896 10.4297C63.4808 10.1016 63.5264 9.75293 63.5264 9.38379V9.22656C63.5264 8.86198 63.4808 8.5179 63.3896 8.19434C63.3031 7.86621 63.1709 7.57682 62.9932 7.32617C62.82 7.07096 62.6012 6.87044 62.3369 6.72461C62.0771 6.57878 61.7718 6.50586 61.4209 6.50586C61.0745 6.50586 60.7692 6.57878 60.5049 6.72461C60.2451 6.87044 60.0264 7.07096 59.8486 7.32617C59.6755 7.57682 59.5456 7.86621 59.459 8.19434C59.3724 8.5179 59.3291 8.86198 59.3291 9.22656ZM67.7578 2.5V13H66.4863V2.5H67.7578ZM71.1621 5.60352V13H69.8906V5.60352H71.1621ZM69.7949 3.6416C69.7949 3.43652 69.8564 3.26335 69.9795 3.12207C70.1071 2.98079 70.2939 2.91016 70.54 2.91016C70.7816 2.91016 70.9661 2.98079 71.0938 3.12207C71.2259 3.26335 71.292 3.43652 71.292 3.6416C71.292 3.83757 71.2259 4.00618 71.0938 4.14746C70.9661 4.28418 70.7816 4.35254 70.54 4.35254C70.2939 4.35254 70.1071 4.28418 69.9795 4.14746C69.8564 4.00618 69.7949 3.83757 69.7949 3.6416ZM76.1523 12.0977C76.4531 12.0977 76.7311 12.0361 76.9863 11.9131C77.2415 11.79 77.4512 11.6214 77.6152 11.4072C77.7793 11.1885 77.8727 10.9401 77.8955 10.6621H79.0986C79.0758 11.0996 78.9277 11.5075 78.6543 11.8857C78.3854 12.2594 78.0322 12.5625 77.5947 12.7949C77.1572 13.0228 76.6764 13.1367 76.1523 13.1367C75.5964 13.1367 75.111 13.0387 74.6963 12.8428C74.2861 12.6468 73.9443 12.3779 73.6709 12.0361C73.402 11.6943 73.1992 11.3024 73.0625 10.8604C72.9303 10.4137 72.8643 9.94206 72.8643 9.44531V9.1582C72.8643 8.66146 72.9303 8.19206 73.0625 7.75C73.1992 7.30339 73.402 6.90918 73.6709 6.56738C73.9443 6.22559 74.2861 5.95671 74.6963 5.76074C75.111 5.56478 75.5964 5.4668 76.1523 5.4668C76.7311 5.4668 77.237 5.58529 77.6699 5.82227C78.1029 6.05469 78.4424 6.3737 78.6885 6.7793C78.9391 7.18034 79.0758 7.63607 79.0986 8.14648H77.8955C77.8727 7.84115 77.7861 7.56543 77.6357 7.31934C77.4899 7.07324 77.2894 6.87728 77.0342 6.73145C76.7835 6.58105 76.4896 6.50586 76.1523 6.50586C75.765 6.50586 75.4391 6.58333 75.1748 6.73828C74.915 6.88867 74.7077 7.09375 74.5527 7.35352C74.4023 7.60872 74.293 7.89355 74.2246 8.20801C74.1608 8.5179 74.1289 8.83464 74.1289 9.1582V9.44531C74.1289 9.76888 74.1608 10.0879 74.2246 10.4023C74.2884 10.7168 74.3955 11.0016 74.5459 11.2568C74.7008 11.512 74.9082 11.7171 75.168 11.8721C75.4323 12.0225 75.7604 12.0977 76.1523 12.0977ZM82.5986 12.2344L84.6562 5.60352H86.0098L83.043 14.1416C82.9746 14.3239 82.8835 14.5199 82.7695 14.7295C82.6602 14.9437 82.5189 15.1465 82.3457 15.3379C82.1725 15.5293 81.9629 15.6842 81.7168 15.8027C81.4753 15.9258 81.1859 15.9873 80.8486 15.9873C80.7484 15.9873 80.6208 15.9736 80.4658 15.9463C80.3109 15.9189 80.2015 15.8962 80.1377 15.8779L80.1309 14.8525C80.1673 14.8571 80.2243 14.8617 80.3018 14.8662C80.3838 14.8753 80.4408 14.8799 80.4727 14.8799C80.7598 14.8799 81.0036 14.8411 81.2041 14.7637C81.4046 14.6908 81.5732 14.5654 81.71 14.3877C81.8512 14.2145 81.972 13.9753 82.0723 13.6699L82.5986 12.2344ZM81.0879 5.60352L83.0088 11.3457L83.3369 12.6787L82.4277 13.1436L79.707 5.60352H81.0879Z" fill="#7B7E86"/>
<path d="M131.833 3.04688V13H130.534V3.04688H131.833ZM135.032 3.04688V4.12695H127.342V3.04688H135.032ZM138.703 13.1367C138.188 13.1367 137.721 13.0501 137.302 12.877C136.887 12.6992 136.529 12.4508 136.229 12.1318C135.932 11.8128 135.704 11.4346 135.545 10.9971C135.385 10.5596 135.306 10.0811 135.306 9.56152V9.27441C135.306 8.67285 135.395 8.13737 135.572 7.66797C135.75 7.19401 135.992 6.79297 136.297 6.46484C136.602 6.13672 136.949 5.88835 137.336 5.71973C137.723 5.55111 138.124 5.4668 138.539 5.4668C139.068 5.4668 139.523 5.55794 139.906 5.74023C140.294 5.92253 140.61 6.17773 140.856 6.50586C141.103 6.82943 141.285 7.21224 141.403 7.6543C141.522 8.0918 141.581 8.57031 141.581 9.08984V9.65723H136.058V8.625H140.316V8.5293C140.298 8.20117 140.23 7.88216 140.111 7.57227C139.997 7.26237 139.815 7.00716 139.564 6.80664C139.314 6.60612 138.972 6.50586 138.539 6.50586C138.252 6.50586 137.988 6.56738 137.746 6.69043C137.505 6.80892 137.297 6.98665 137.124 7.22363C136.951 7.46061 136.816 7.75 136.721 8.0918C136.625 8.43359 136.577 8.8278 136.577 9.27441V9.56152C136.577 9.91243 136.625 10.2428 136.721 10.5527C136.821 10.8581 136.965 11.127 137.151 11.3594C137.343 11.5918 137.573 11.7741 137.842 11.9062C138.115 12.0384 138.425 12.1045 138.771 12.1045C139.218 12.1045 139.596 12.0133 139.906 11.8311C140.216 11.6488 140.487 11.4049 140.72 11.0996L141.485 11.708C141.326 11.9495 141.123 12.1797 140.877 12.3984C140.631 12.6172 140.328 12.7949 139.968 12.9316C139.612 13.0684 139.191 13.1367 138.703 13.1367ZM144.322 6.76562V13H143.058V5.60352H144.288L144.322 6.76562ZM146.633 5.5625L146.626 6.73828C146.521 6.71549 146.421 6.70182 146.325 6.69727C146.234 6.68815 146.129 6.68359 146.011 6.68359C145.719 6.68359 145.462 6.72917 145.238 6.82031C145.015 6.91146 144.826 7.03906 144.671 7.20312C144.516 7.36719 144.393 7.56315 144.302 7.79102C144.215 8.01432 144.158 8.26042 144.131 8.5293L143.775 8.73438C143.775 8.28776 143.819 7.86849 143.905 7.47656C143.996 7.08464 144.135 6.73828 144.322 6.4375C144.509 6.13216 144.746 5.89518 145.033 5.72656C145.325 5.55339 145.671 5.4668 146.072 5.4668C146.163 5.4668 146.268 5.47819 146.387 5.50098C146.505 5.51921 146.587 5.53971 146.633 5.5625ZM149.06 7.07324V13H147.788V5.60352H148.991L149.06 7.07324ZM148.8 9.02148L148.212 9.00098C148.216 8.49512 148.283 8.02799 148.41 7.59961C148.538 7.16667 148.727 6.79069 148.978 6.47168C149.228 6.15267 149.54 5.90658 149.914 5.7334C150.288 5.55566 150.721 5.4668 151.213 5.4668C151.559 5.4668 151.878 5.51693 152.17 5.61719C152.462 5.71289 152.715 5.86556 152.929 6.0752C153.143 6.28483 153.309 6.55371 153.428 6.88184C153.546 7.20996 153.605 7.60645 153.605 8.07129V13H152.341V8.13281C152.341 7.74544 152.275 7.43555 152.143 7.20312C152.015 6.9707 151.833 6.80208 151.596 6.69727C151.359 6.58789 151.081 6.5332 150.762 6.5332C150.388 6.5332 150.076 6.59928 149.825 6.73145C149.575 6.86361 149.374 7.0459 149.224 7.27832C149.073 7.51074 148.964 7.77734 148.896 8.07812C148.832 8.37435 148.8 8.6888 148.8 9.02148ZM153.592 8.32422L152.744 8.58398C152.749 8.17839 152.815 7.78874 152.942 7.41504C153.075 7.04134 153.264 6.70866 153.51 6.41699C153.76 6.12533 154.068 5.89518 154.433 5.72656C154.797 5.55339 155.214 5.4668 155.684 5.4668C156.08 5.4668 156.431 5.51921 156.736 5.62402C157.046 5.72884 157.306 5.89062 157.516 6.10938C157.73 6.32357 157.892 6.59928 158.001 6.93652C158.11 7.27376 158.165 7.6748 158.165 8.13965V13H156.894V8.12598C156.894 7.71126 156.827 7.38997 156.695 7.16211C156.568 6.92969 156.385 6.7679 156.148 6.67676C155.916 6.58105 155.638 6.5332 155.314 6.5332C155.036 6.5332 154.79 6.58105 154.576 6.67676C154.362 6.77246 154.182 6.90462 154.036 7.07324C153.89 7.2373 153.779 7.42643 153.701 7.64062C153.628 7.85482 153.592 8.08268 153.592 8.32422ZM164.386 11.0381C164.386 10.8558 164.345 10.6872 164.263 10.5322C164.185 10.3727 164.023 10.2292 163.777 10.1016C163.536 9.9694 163.171 9.85547 162.684 9.75977C162.273 9.67318 161.902 9.57064 161.569 9.45215C161.241 9.33366 160.961 9.1901 160.729 9.02148C160.501 8.85286 160.325 8.65462 160.202 8.42676C160.079 8.19889 160.018 7.93229 160.018 7.62695C160.018 7.33529 160.081 7.05957 160.209 6.7998C160.341 6.54004 160.526 6.3099 160.763 6.10938C161.004 5.90885 161.294 5.75163 161.631 5.6377C161.968 5.52376 162.344 5.4668 162.759 5.4668C163.351 5.4668 163.857 5.57161 164.276 5.78125C164.696 5.99089 165.017 6.27116 165.24 6.62207C165.464 6.96842 165.575 7.35352 165.575 7.77734H164.311C164.311 7.57227 164.249 7.37402 164.126 7.18262C164.007 6.98665 163.832 6.82487 163.6 6.69727C163.372 6.56966 163.091 6.50586 162.759 6.50586C162.408 6.50586 162.123 6.56055 161.904 6.66992C161.69 6.77474 161.533 6.90918 161.433 7.07324C161.337 7.2373 161.289 7.41048 161.289 7.59277C161.289 7.72949 161.312 7.85254 161.357 7.96191C161.408 8.06673 161.494 8.16471 161.617 8.25586C161.74 8.34245 161.913 8.42448 162.137 8.50195C162.36 8.57943 162.645 8.6569 162.991 8.73438C163.597 8.87109 164.096 9.03516 164.488 9.22656C164.88 9.41797 165.172 9.65267 165.363 9.93066C165.555 10.2087 165.65 10.5459 165.65 10.9424C165.65 11.266 165.582 11.5622 165.445 11.8311C165.313 12.0999 165.119 12.3324 164.864 12.5283C164.614 12.7197 164.313 12.8701 163.962 12.9795C163.616 13.0843 163.226 13.1367 162.793 13.1367C162.141 13.1367 161.59 13.0205 161.139 12.7881C160.688 12.5557 160.346 12.2549 160.113 11.8857C159.881 11.5166 159.765 11.127 159.765 10.7168H161.036C161.054 11.0632 161.155 11.3389 161.337 11.5439C161.519 11.7445 161.743 11.888 162.007 11.9746C162.271 12.0566 162.533 12.0977 162.793 12.0977C163.139 12.0977 163.429 12.0521 163.661 11.9609C163.898 11.8698 164.078 11.7445 164.201 11.585C164.324 11.4255 164.386 11.2432 164.386 11.0381ZM170.449 9.38379V9.22656C170.449 8.69336 170.527 8.19889 170.682 7.74316C170.837 7.28288 171.06 6.88411 171.352 6.54688C171.643 6.20508 171.996 5.94076 172.411 5.75391C172.826 5.5625 173.291 5.4668 173.806 5.4668C174.325 5.4668 174.792 5.5625 175.207 5.75391C175.626 5.94076 175.982 6.20508 176.273 6.54688C176.57 6.88411 176.795 7.28288 176.95 7.74316C177.105 8.19889 177.183 8.69336 177.183 9.22656V9.38379C177.183 9.91699 177.105 10.4115 176.95 10.8672C176.795 11.3229 176.57 11.7217 176.273 12.0635C175.982 12.4007 175.629 12.665 175.214 12.8564C174.804 13.0433 174.339 13.1367 173.819 13.1367C173.3 13.1367 172.833 13.0433 172.418 12.8564C172.003 12.665 171.648 12.4007 171.352 12.0635C171.06 11.7217 170.837 11.3229 170.682 10.8672C170.527 10.4115 170.449 9.91699 170.449 9.38379ZM171.714 9.22656V9.38379C171.714 9.75293 171.757 10.1016 171.844 10.4297C171.93 10.7533 172.06 11.0404 172.233 11.291C172.411 11.5417 172.632 11.7399 172.896 11.8857C173.161 12.027 173.468 12.0977 173.819 12.0977C174.166 12.0977 174.469 12.027 174.729 11.8857C174.993 11.7399 175.212 11.5417 175.385 11.291C175.558 11.0404 175.688 10.7533 175.774 10.4297C175.866 10.1016 175.911 9.75293 175.911 9.38379V9.22656C175.911 8.86198 175.866 8.5179 175.774 8.19434C175.688 7.86621 175.556 7.57682 175.378 7.32617C175.205 7.07096 174.986 6.87044 174.722 6.72461C174.462 6.57878 174.157 6.50586 173.806 6.50586C173.459 6.50586 173.154 6.57878 172.89 6.72461C172.63 6.87044 172.411 7.07096 172.233 7.32617C172.06 7.57682 171.93 7.86621 171.844 8.19434C171.757 8.5179 171.714 8.86198 171.714 9.22656ZM180.655 13H179.391V4.82422C179.391 4.29102 179.486 3.84212 179.678 3.47754C179.874 3.1084 180.154 2.8304 180.519 2.64355C180.883 2.45215 181.316 2.35645 181.817 2.35645C181.963 2.35645 182.109 2.36556 182.255 2.38379C182.405 2.40202 182.551 2.42936 182.692 2.46582L182.624 3.49805C182.528 3.47526 182.419 3.45931 182.296 3.4502C182.177 3.44108 182.059 3.43652 181.94 3.43652C181.672 3.43652 181.439 3.49121 181.243 3.60059C181.052 3.7054 180.906 3.86035 180.806 4.06543C180.705 4.27051 180.655 4.52344 180.655 4.82422V13ZM182.228 5.60352V6.57422H178.222V5.60352H182.228ZM192.994 3.04688H194.307V9.78027C194.307 10.5277 194.14 11.1497 193.808 11.6465C193.475 12.1432 193.033 12.5169 192.481 12.7676C191.935 13.0137 191.34 13.1367 190.697 13.1367C190.023 13.1367 189.412 13.0137 188.865 12.7676C188.323 12.5169 187.892 12.1432 187.573 11.6465C187.259 11.1497 187.102 10.5277 187.102 9.78027V3.04688H188.407V9.78027C188.407 10.2998 188.503 10.7282 188.694 11.0654C188.886 11.4027 189.152 11.6533 189.494 11.8174C189.84 11.9814 190.242 12.0635 190.697 12.0635C191.158 12.0635 191.559 11.9814 191.9 11.8174C192.247 11.6533 192.516 11.4027 192.707 11.0654C192.898 10.7282 192.994 10.2998 192.994 9.78027V3.04688ZM200.493 11.0381C200.493 10.8558 200.452 10.6872 200.37 10.5322C200.293 10.3727 200.131 10.2292 199.885 10.1016C199.643 9.9694 199.279 9.85547 198.791 9.75977C198.381 9.67318 198.009 9.57064 197.677 9.45215C197.349 9.33366 197.068 9.1901 196.836 9.02148C196.608 8.85286 196.433 8.65462 196.31 8.42676C196.187 8.19889 196.125 7.93229 196.125 7.62695C196.125 7.33529 196.189 7.05957 196.316 6.7998C196.449 6.54004 196.633 6.3099 196.87 6.10938C197.112 5.90885 197.401 5.75163 197.738 5.6377C198.076 5.52376 198.451 5.4668 198.866 5.4668C199.459 5.4668 199.965 5.57161 200.384 5.78125C200.803 5.99089 201.124 6.27116 201.348 6.62207C201.571 6.96842 201.683 7.35352 201.683 7.77734H200.418C200.418 7.57227 200.356 7.37402 200.233 7.18262C200.115 6.98665 199.939 6.82487 199.707 6.69727C199.479 6.56966 199.199 6.50586 198.866 6.50586C198.515 6.50586 198.23 6.56055 198.012 6.66992C197.798 6.77474 197.64 6.90918 197.54 7.07324C197.444 7.2373 197.396 7.41048 197.396 7.59277C197.396 7.72949 197.419 7.85254 197.465 7.96191C197.515 8.06673 197.602 8.16471 197.725 8.25586C197.848 8.34245 198.021 8.42448 198.244 8.50195C198.467 8.57943 198.752 8.6569 199.099 8.73438C199.705 8.87109 200.204 9.03516 200.596 9.22656C200.988 9.41797 201.279 9.65267 201.471 9.93066C201.662 10.2087 201.758 10.5459 201.758 10.9424C201.758 11.266 201.689 11.5622 201.553 11.8311C201.421 12.0999 201.227 12.3324 200.972 12.5283C200.721 12.7197 200.42 12.8701 200.069 12.9795C199.723 13.0843 199.333 13.1367 198.9 13.1367C198.249 13.1367 197.697 13.0205 197.246 12.7881C196.795 12.5557 196.453 12.2549 196.221 11.8857C195.988 11.5166 195.872 11.127 195.872 10.7168H197.144C197.162 11.0632 197.262 11.3389 197.444 11.5439C197.627 11.7445 197.85 11.888 198.114 11.9746C198.379 12.0566 198.641 12.0977 198.9 12.0977C199.247 12.0977 199.536 12.0521 199.769 11.9609C200.006 11.8698 200.186 11.7445 200.309 11.585C200.432 11.4255 200.493 11.2432 200.493 11.0381ZM206.488 13.1367C205.973 13.1367 205.506 13.0501 205.087 12.877C204.672 12.6992 204.314 12.4508 204.014 12.1318C203.717 11.8128 203.49 11.4346 203.33 10.9971C203.171 10.5596 203.091 10.0811 203.091 9.56152V9.27441C203.091 8.67285 203.18 8.13737 203.357 7.66797C203.535 7.19401 203.777 6.79297 204.082 6.46484C204.387 6.13672 204.734 5.88835 205.121 5.71973C205.508 5.55111 205.91 5.4668 206.324 5.4668C206.853 5.4668 207.309 5.55794 207.691 5.74023C208.079 5.92253 208.396 6.17773 208.642 6.50586C208.888 6.82943 209.07 7.21224 209.188 7.6543C209.307 8.0918 209.366 8.57031 209.366 9.08984V9.65723H203.843V8.625H208.102V8.5293C208.083 8.20117 208.015 7.88216 207.896 7.57227C207.783 7.26237 207.6 7.00716 207.35 6.80664C207.099 6.60612 206.757 6.50586 206.324 6.50586C206.037 6.50586 205.773 6.56738 205.531 6.69043C205.29 6.80892 205.082 6.98665 204.909 7.22363C204.736 7.46061 204.602 7.75 204.506 8.0918C204.41 8.43359 204.362 8.8278 204.362 9.27441V9.56152C204.362 9.91243 204.41 10.2428 204.506 10.5527C204.606 10.8581 204.75 11.127 204.937 11.3594C205.128 11.5918 205.358 11.7741 205.627 11.9062C205.9 12.0384 206.21 12.1045 206.557 12.1045C207.003 12.1045 207.382 12.0133 207.691 11.8311C208.001 11.6488 208.272 11.4049 208.505 11.0996L209.271 11.708C209.111 11.9495 208.908 12.1797 208.662 12.3984C208.416 12.6172 208.113 12.7949 207.753 12.9316C207.397 13.0684 206.976 13.1367 206.488 13.1367Z" fill="#7B7E86"/>
<path d="M256.46 10.4844C256.46 10.252 256.424 10.0469 256.351 9.86914C256.282 9.68685 256.159 9.52279 255.981 9.37695C255.808 9.23112 255.567 9.09212 255.257 8.95996C254.951 8.8278 254.564 8.69336 254.095 8.55664C253.603 8.41081 253.158 8.24902 252.762 8.07129C252.365 7.889 252.026 7.68164 251.743 7.44922C251.461 7.2168 251.244 6.9502 251.094 6.64941C250.943 6.34863 250.868 6.00456 250.868 5.61719C250.868 5.22982 250.948 4.87207 251.107 4.54395C251.267 4.21582 251.495 3.93099 251.791 3.68945C252.092 3.44336 252.45 3.25195 252.864 3.11523C253.279 2.97852 253.742 2.91016 254.252 2.91016C254.999 2.91016 255.633 3.05371 256.152 3.34082C256.676 3.62337 257.075 3.99479 257.349 4.45508C257.622 4.91081 257.759 5.39844 257.759 5.91797H256.446C256.446 5.54427 256.367 5.21387 256.207 4.92676C256.048 4.63509 255.806 4.40723 255.482 4.24316C255.159 4.07454 254.749 3.99023 254.252 3.99023C253.783 3.99023 253.395 4.06087 253.09 4.20215C252.785 4.34342 252.557 4.53483 252.406 4.77637C252.26 5.0179 252.188 5.29362 252.188 5.60352C252.188 5.81315 252.231 6.00456 252.317 6.17773C252.409 6.34635 252.548 6.50358 252.734 6.64941C252.926 6.79525 253.167 6.92969 253.459 7.05273C253.755 7.17578 254.108 7.29427 254.519 7.4082C255.084 7.56771 255.571 7.74544 255.981 7.94141C256.392 8.13737 256.729 8.3584 256.993 8.60449C257.262 8.84603 257.46 9.12174 257.588 9.43164C257.72 9.73698 257.786 10.0833 257.786 10.4707C257.786 10.8763 257.704 11.2432 257.54 11.5713C257.376 11.8994 257.141 12.1797 256.836 12.4121C256.531 12.6445 256.164 12.8245 255.735 12.9521C255.312 13.0752 254.838 13.1367 254.313 13.1367C253.853 13.1367 253.4 13.0729 252.953 12.9453C252.511 12.8177 252.108 12.6263 251.743 12.3711C251.383 12.1159 251.094 11.8014 250.875 11.4277C250.661 11.0495 250.554 10.612 250.554 10.1152H251.866C251.866 10.457 251.932 10.751 252.064 10.9971C252.197 11.2386 252.377 11.4391 252.604 11.5986C252.837 11.7581 253.099 11.8766 253.391 11.9541C253.687 12.027 253.994 12.0635 254.313 12.0635C254.774 12.0635 255.163 11.9997 255.482 11.8721C255.801 11.7445 256.043 11.5622 256.207 11.3252C256.376 11.0882 256.46 10.8079 256.46 10.4844ZM263.638 11.7354V7.92773C263.638 7.63607 263.578 7.38314 263.46 7.16895C263.346 6.9502 263.173 6.78158 262.94 6.66309C262.708 6.5446 262.421 6.48535 262.079 6.48535C261.76 6.48535 261.48 6.54004 261.238 6.64941C261.001 6.75879 260.814 6.90234 260.678 7.08008C260.546 7.25781 260.479 7.44922 260.479 7.6543H259.215C259.215 7.38997 259.283 7.12793 259.42 6.86816C259.557 6.6084 259.753 6.3737 260.008 6.16406C260.268 5.94987 260.577 5.78125 260.938 5.6582C261.302 5.5306 261.708 5.4668 262.154 5.4668C262.692 5.4668 263.166 5.55794 263.576 5.74023C263.991 5.92253 264.314 6.19824 264.547 6.56738C264.784 6.93197 264.902 7.38997 264.902 7.94141V11.3867C264.902 11.6328 264.923 11.8949 264.964 12.1729C265.009 12.4508 265.076 12.6901 265.162 12.8906V13H263.843C263.779 12.8542 263.729 12.6605 263.692 12.4189C263.656 12.1729 263.638 11.945 263.638 11.7354ZM263.856 8.51562L263.87 9.4043H262.592C262.232 9.4043 261.91 9.43392 261.628 9.49316C261.345 9.54785 261.108 9.63216 260.917 9.74609C260.726 9.86003 260.58 10.0036 260.479 10.1768C260.379 10.3454 260.329 10.5436 260.329 10.7715C260.329 11.0039 260.382 11.2158 260.486 11.4072C260.591 11.5986 260.748 11.7513 260.958 11.8652C261.172 11.9746 261.434 12.0293 261.744 12.0293C262.132 12.0293 262.473 11.9473 262.77 11.7832C263.066 11.6191 263.3 11.4186 263.474 11.1816C263.651 10.9447 263.747 10.7145 263.761 10.4912L264.301 11.0996C264.269 11.291 264.182 11.5029 264.041 11.7354C263.9 11.9678 263.711 12.1911 263.474 12.4053C263.241 12.6149 262.963 12.7904 262.64 12.9316C262.321 13.0684 261.961 13.1367 261.56 13.1367C261.058 13.1367 260.618 13.0387 260.24 12.8428C259.867 12.6468 259.575 12.3848 259.365 12.0566C259.16 11.724 259.058 11.3525 259.058 10.9424C259.058 10.5459 259.135 10.1973 259.29 9.89648C259.445 9.59115 259.668 9.33822 259.96 9.1377C260.252 8.93262 260.603 8.77767 261.013 8.67285C261.423 8.56803 261.881 8.51562 262.387 8.51562H263.856ZM268.266 2.5V13H266.994V2.5H268.266ZM273.365 13.1367C272.85 13.1367 272.383 13.0501 271.964 12.877C271.549 12.6992 271.191 12.4508 270.891 12.1318C270.594 11.8128 270.367 11.4346 270.207 10.9971C270.048 10.5596 269.968 10.0811 269.968 9.56152V9.27441C269.968 8.67285 270.057 8.13737 270.234 7.66797C270.412 7.19401 270.654 6.79297 270.959 6.46484C271.264 6.13672 271.611 5.88835 271.998 5.71973C272.385 5.55111 272.786 5.4668 273.201 5.4668C273.73 5.4668 274.186 5.55794 274.568 5.74023C274.956 5.92253 275.272 6.17773 275.519 6.50586C275.765 6.82943 275.947 7.21224 276.065 7.6543C276.184 8.0918 276.243 8.57031 276.243 9.08984V9.65723H270.72V8.625H274.979V8.5293C274.96 8.20117 274.892 7.88216 274.773 7.57227C274.66 7.26237 274.477 7.00716 274.227 6.80664C273.976 6.60612 273.634 6.50586 273.201 6.50586C272.914 6.50586 272.65 6.56738 272.408 6.69043C272.167 6.80892 271.959 6.98665 271.786 7.22363C271.613 7.46061 271.479 7.75 271.383 8.0918C271.287 8.43359 271.239 8.8278 271.239 9.27441V9.56152C271.239 9.91243 271.287 10.2428 271.383 10.5527C271.483 10.8581 271.627 11.127 271.813 11.3594C272.005 11.5918 272.235 11.7741 272.504 11.9062C272.777 12.0384 273.087 12.1045 273.434 12.1045C273.88 12.1045 274.258 12.0133 274.568 11.8311C274.878 11.6488 275.149 11.4049 275.382 11.0996L276.147 11.708C275.988 11.9495 275.785 12.1797 275.539 12.3984C275.293 12.6172 274.99 12.7949 274.63 12.9316C274.274 13.0684 273.853 13.1367 273.365 13.1367ZM282.026 11.0381C282.026 10.8558 281.985 10.6872 281.903 10.5322C281.826 10.3727 281.664 10.2292 281.418 10.1016C281.176 9.9694 280.812 9.85547 280.324 9.75977C279.914 9.67318 279.543 9.57064 279.21 9.45215C278.882 9.33366 278.602 9.1901 278.369 9.02148C278.141 8.85286 277.966 8.65462 277.843 8.42676C277.72 8.19889 277.658 7.93229 277.658 7.62695C277.658 7.33529 277.722 7.05957 277.85 6.7998C277.982 6.54004 278.166 6.3099 278.403 6.10938C278.645 5.90885 278.934 5.75163 279.271 5.6377C279.609 5.52376 279.985 5.4668 280.399 5.4668C280.992 5.4668 281.498 5.57161 281.917 5.78125C282.336 5.99089 282.658 6.27116 282.881 6.62207C283.104 6.96842 283.216 7.35352 283.216 7.77734H281.951C281.951 7.57227 281.89 7.37402 281.767 7.18262C281.648 6.98665 281.473 6.82487 281.24 6.69727C281.012 6.56966 280.732 6.50586 280.399 6.50586C280.049 6.50586 279.764 6.56055 279.545 6.66992C279.331 6.77474 279.174 6.90918 279.073 7.07324C278.978 7.2373 278.93 7.41048 278.93 7.59277C278.93 7.72949 278.952 7.85254 278.998 7.96191C279.048 8.06673 279.135 8.16471 279.258 8.25586C279.381 8.34245 279.554 8.42448 279.777 8.50195C280.001 8.57943 280.285 8.6569 280.632 8.73438C281.238 8.87109 281.737 9.03516 282.129 9.22656C282.521 9.41797 282.812 9.65267 283.004 9.93066C283.195 10.2087 283.291 10.5459 283.291 10.9424C283.291 11.266 283.223 11.5622 283.086 11.8311C282.954 12.0999 282.76 12.3324 282.505 12.5283C282.254 12.7197 281.953 12.8701 281.603 12.9795C281.256 13.0843 280.867 13.1367 280.434 13.1367C279.782 13.1367 279.23 13.0205 278.779 12.7881C278.328 12.5557 277.986 12.2549 277.754 11.8857C277.521 11.5166 277.405 11.127 277.405 10.7168H278.677C278.695 11.0632 278.795 11.3389 278.978 11.5439C279.16 11.7445 279.383 11.888 279.647 11.9746C279.912 12.0566 280.174 12.0977 280.434 12.0977C280.78 12.0977 281.069 12.0521 281.302 11.9609C281.539 11.8698 281.719 11.7445 281.842 11.585C281.965 11.4255 282.026 11.2432 282.026 11.0381ZM292.786 11.7354V7.92773C292.786 7.63607 292.727 7.38314 292.608 7.16895C292.494 6.9502 292.321 6.78158 292.089 6.66309C291.856 6.5446 291.569 6.48535 291.228 6.48535C290.909 6.48535 290.628 6.54004 290.387 6.64941C290.15 6.75879 289.963 6.90234 289.826 7.08008C289.694 7.25781 289.628 7.44922 289.628 7.6543H288.363C288.363 7.38997 288.432 7.12793 288.568 6.86816C288.705 6.6084 288.901 6.3737 289.156 6.16406C289.416 5.94987 289.726 5.78125 290.086 5.6582C290.451 5.5306 290.856 5.4668 291.303 5.4668C291.84 5.4668 292.314 5.55794 292.725 5.74023C293.139 5.92253 293.463 6.19824 293.695 6.56738C293.932 6.93197 294.051 7.38997 294.051 7.94141V11.3867C294.051 11.6328 294.071 11.8949 294.112 12.1729C294.158 12.4508 294.224 12.6901 294.311 12.8906V13H292.991C292.927 12.8542 292.877 12.6605 292.841 12.4189C292.804 12.1729 292.786 11.945 292.786 11.7354ZM293.005 8.51562L293.019 9.4043H291.74C291.38 9.4043 291.059 9.43392 290.776 9.49316C290.494 9.54785 290.257 9.63216 290.065 9.74609C289.874 9.86003 289.728 10.0036 289.628 10.1768C289.528 10.3454 289.478 10.5436 289.478 10.7715C289.478 11.0039 289.53 11.2158 289.635 11.4072C289.74 11.5986 289.897 11.7513 290.106 11.8652C290.321 11.9746 290.583 12.0293 290.893 12.0293C291.28 12.0293 291.622 11.9473 291.918 11.7832C292.214 11.6191 292.449 11.4186 292.622 11.1816C292.8 10.9447 292.896 10.7145 292.909 10.4912L293.449 11.0996C293.417 11.291 293.331 11.5029 293.189 11.7354C293.048 11.9678 292.859 12.1911 292.622 12.4053C292.39 12.6149 292.112 12.7904 291.788 12.9316C291.469 13.0684 291.109 13.1367 290.708 13.1367C290.207 13.1367 289.767 13.0387 289.389 12.8428C289.015 12.6468 288.723 12.3848 288.514 12.0566C288.309 11.724 288.206 11.3525 288.206 10.9424C288.206 10.5459 288.284 10.1973 288.438 9.89648C288.593 9.59115 288.817 9.33822 289.108 9.1377C289.4 8.93262 289.751 8.77767 290.161 8.67285C290.571 8.56803 291.029 8.51562 291.535 8.51562H293.005ZM297.305 7.18262V13H296.04V5.60352H297.236L297.305 7.18262ZM297.004 9.02148L296.478 9.00098C296.482 8.49512 296.557 8.02799 296.703 7.59961C296.849 7.16667 297.054 6.79069 297.318 6.47168C297.583 6.15267 297.897 5.90658 298.262 5.7334C298.631 5.55566 299.039 5.4668 299.485 5.4668C299.85 5.4668 300.178 5.51693 300.47 5.61719C300.761 5.71289 301.01 5.86784 301.215 6.08203C301.424 6.29622 301.584 6.57422 301.693 6.91602C301.803 7.25326 301.857 7.66569 301.857 8.15332V13H300.586V8.13965C300.586 7.75228 300.529 7.44238 300.415 7.20996C300.301 6.97298 300.135 6.80208 299.916 6.69727C299.697 6.58789 299.428 6.5332 299.109 6.5332C298.795 6.5332 298.508 6.59928 298.248 6.73145C297.993 6.86361 297.772 7.0459 297.585 7.27832C297.403 7.51074 297.259 7.77734 297.154 8.07812C297.054 8.37435 297.004 8.6888 297.004 9.02148ZM308.44 11.5645V2.5H309.712V13H308.55L308.44 11.5645ZM303.464 9.38379V9.24023C303.464 8.67513 303.532 8.16243 303.669 7.70215C303.81 7.2373 304.008 6.83854 304.264 6.50586C304.523 6.17318 304.831 5.91797 305.187 5.74023C305.547 5.55794 305.948 5.4668 306.39 5.4668C306.854 5.4668 307.26 5.54883 307.606 5.71289C307.957 5.8724 308.254 6.1071 308.495 6.41699C308.741 6.72233 308.935 7.09147 309.076 7.52441C309.217 7.95736 309.315 8.44727 309.37 8.99414V9.62305C309.32 10.1654 309.222 10.653 309.076 11.0859C308.935 11.5189 308.741 11.888 308.495 12.1934C308.254 12.4987 307.957 12.7334 307.606 12.8975C307.256 13.057 306.845 13.1367 306.376 13.1367C305.943 13.1367 305.547 13.0433 305.187 12.8564C304.831 12.6696 304.523 12.4076 304.264 12.0703C304.008 11.7331 303.81 11.3366 303.669 10.8809C303.532 10.4206 303.464 9.92155 303.464 9.38379ZM304.735 9.24023V9.38379C304.735 9.75293 304.772 10.0993 304.845 10.4229C304.922 10.7464 305.041 11.0312 305.2 11.2773C305.36 11.5234 305.562 11.7171 305.809 11.8584C306.055 11.9951 306.349 12.0635 306.69 12.0635C307.11 12.0635 307.454 11.9746 307.723 11.7969C307.996 11.6191 308.215 11.3844 308.379 11.0928C308.543 10.8011 308.671 10.4844 308.762 10.1426V8.49512C308.707 8.24447 308.627 8.00293 308.522 7.77051C308.422 7.53353 308.29 7.32389 308.126 7.1416C307.966 6.95475 307.768 6.80664 307.531 6.69727C307.299 6.58789 307.023 6.5332 306.704 6.5332C306.358 6.5332 306.059 6.60612 305.809 6.75195C305.562 6.89323 305.36 7.08919 305.2 7.33984C305.041 7.58594 304.922 7.87305 304.845 8.20117C304.772 8.52474 304.735 8.87109 304.735 9.24023ZM315.345 3.04688H318.64C319.387 3.04688 320.018 3.16081 320.533 3.38867C321.053 3.61654 321.447 3.95378 321.716 4.40039C321.989 4.84245 322.126 5.38704 322.126 6.03418C322.126 6.48991 322.033 6.9069 321.846 7.28516C321.663 7.65885 321.399 7.97786 321.053 8.24219C320.711 8.50195 320.301 8.69564 319.822 8.82324L319.453 8.9668H316.356L316.343 7.89355H318.681C319.155 7.89355 319.549 7.81152 319.863 7.64746C320.178 7.47884 320.415 7.25326 320.574 6.9707C320.734 6.68815 320.813 6.37598 320.813 6.03418C320.813 5.65137 320.738 5.31641 320.588 5.0293C320.438 4.74219 320.201 4.52116 319.877 4.36621C319.558 4.20671 319.146 4.12695 318.64 4.12695H316.664V13H315.345V3.04688ZM321.162 13L318.742 8.48828L320.116 8.48145L322.57 12.918V13H321.162ZM326.85 13.1367C326.335 13.1367 325.868 13.0501 325.448 12.877C325.034 12.6992 324.676 12.4508 324.375 12.1318C324.079 11.8128 323.851 11.4346 323.691 10.9971C323.532 10.5596 323.452 10.0811 323.452 9.56152V9.27441C323.452 8.67285 323.541 8.13737 323.719 7.66797C323.896 7.19401 324.138 6.79297 324.443 6.46484C324.749 6.13672 325.095 5.88835 325.482 5.71973C325.87 5.55111 326.271 5.4668 326.686 5.4668C327.214 5.4668 327.67 5.55794 328.053 5.74023C328.44 5.92253 328.757 6.17773 329.003 6.50586C329.249 6.82943 329.431 7.21224 329.55 7.6543C329.668 8.0918 329.728 8.57031 329.728 9.08984V9.65723H324.204V8.625H328.463V8.5293C328.445 8.20117 328.376 7.88216 328.258 7.57227C328.144 7.26237 327.962 7.00716 327.711 6.80664C327.46 6.60612 327.118 6.50586 326.686 6.50586C326.398 6.50586 326.134 6.56738 325.893 6.69043C325.651 6.80892 325.444 6.98665 325.271 7.22363C325.097 7.46061 324.963 7.75 324.867 8.0918C324.771 8.43359 324.724 8.8278 324.724 9.27441V9.56152C324.724 9.91243 324.771 10.2428 324.867 10.5527C324.967 10.8581 325.111 11.127 325.298 11.3594C325.489 11.5918 325.719 11.7741 325.988 11.9062C326.262 12.0384 326.572 12.1045 326.918 12.1045C327.365 12.1045 327.743 12.0133 328.053 11.8311C328.363 11.6488 328.634 11.4049 328.866 11.0996L329.632 11.708C329.472 11.9495 329.27 12.1797 329.023 12.3984C328.777 12.6172 328.474 12.7949 328.114 12.9316C327.759 13.0684 327.337 13.1367 326.85 13.1367ZM333.091 13H331.826V4.82422C331.826 4.29102 331.922 3.84212 332.113 3.47754C332.309 3.1084 332.59 2.8304 332.954 2.64355C333.319 2.45215 333.752 2.35645 334.253 2.35645C334.399 2.35645 334.545 2.36556 334.69 2.38379C334.841 2.40202 334.987 2.42936 335.128 2.46582L335.06 3.49805C334.964 3.47526 334.854 3.45931 334.731 3.4502C334.613 3.44108 334.494 3.43652 334.376 3.43652C334.107 3.43652 333.875 3.49121 333.679 3.60059C333.487 3.7054 333.341 3.86035 333.241 4.06543C333.141 4.27051 333.091 4.52344 333.091 4.82422V13ZM334.663 5.60352V6.57422H330.657V5.60352H334.663ZM340.597 11.291V5.60352H341.868V13H340.658L340.597 11.291ZM340.836 9.73242L341.362 9.71875C341.362 10.2109 341.31 10.6667 341.205 11.0859C341.105 11.5007 340.941 11.8607 340.713 12.166C340.485 12.4714 340.187 12.7106 339.817 12.8838C339.448 13.0524 338.999 13.1367 338.471 13.1367C338.111 13.1367 337.78 13.0843 337.479 12.9795C337.183 12.8747 336.928 12.7129 336.714 12.4941C336.5 12.2754 336.333 11.9906 336.215 11.6396C336.101 11.2887 336.044 10.8672 336.044 10.375V5.60352H337.309V10.3887C337.309 10.7214 337.345 10.9971 337.418 11.2158C337.495 11.43 337.598 11.6009 337.726 11.7285C337.858 11.8516 338.004 11.9382 338.163 11.9883C338.327 12.0384 338.496 12.0635 338.669 12.0635C339.207 12.0635 339.633 11.9609 339.947 11.7559C340.262 11.5462 340.487 11.266 340.624 10.915C340.765 10.5596 340.836 10.1654 340.836 9.73242ZM345.061 7.18262V13H343.796V5.60352H344.992L345.061 7.18262ZM344.76 9.02148L344.233 9.00098C344.238 8.49512 344.313 8.02799 344.459 7.59961C344.605 7.16667 344.81 6.79069 345.074 6.47168C345.339 6.15267 345.653 5.90658 346.018 5.7334C346.387 5.55566 346.795 5.4668 347.241 5.4668C347.606 5.4668 347.934 5.51693 348.226 5.61719C348.517 5.71289 348.766 5.86784 348.971 6.08203C349.18 6.29622 349.34 6.57422 349.449 6.91602C349.559 7.25326 349.613 7.66569 349.613 8.15332V13H348.342V8.13965C348.342 7.75228 348.285 7.44238 348.171 7.20996C348.057 6.97298 347.891 6.80208 347.672 6.69727C347.453 6.58789 347.184 6.5332 346.865 6.5332C346.551 6.5332 346.264 6.59928 346.004 6.73145C345.749 6.86361 345.528 7.0459 345.341 7.27832C345.159 7.51074 345.015 7.77734 344.91 8.07812C344.81 8.37435 344.76 8.6888 344.76 9.02148ZM356.196 11.5645V2.5H357.468V13H356.306L356.196 11.5645ZM351.22 9.38379V9.24023C351.22 8.67513 351.288 8.16243 351.425 7.70215C351.566 7.2373 351.764 6.83854 352.02 6.50586C352.279 6.17318 352.587 5.91797 352.942 5.74023C353.302 5.55794 353.703 5.4668 354.146 5.4668C354.61 5.4668 355.016 5.54883 355.362 5.71289C355.713 5.8724 356.009 6.1071 356.251 6.41699C356.497 6.72233 356.691 7.09147 356.832 7.52441C356.973 7.95736 357.071 8.44727 357.126 8.99414V9.62305C357.076 10.1654 356.978 10.653 356.832 11.0859C356.691 11.5189 356.497 11.888 356.251 12.1934C356.009 12.4987 355.713 12.7334 355.362 12.8975C355.011 13.057 354.601 13.1367 354.132 13.1367C353.699 13.1367 353.302 13.0433 352.942 12.8564C352.587 12.6696 352.279 12.4076 352.02 12.0703C351.764 11.7331 351.566 11.3366 351.425 10.8809C351.288 10.4206 351.22 9.92155 351.22 9.38379ZM352.491 9.24023V9.38379C352.491 9.75293 352.528 10.0993 352.601 10.4229C352.678 10.7464 352.797 11.0312 352.956 11.2773C353.116 11.5234 353.318 11.7171 353.564 11.8584C353.811 11.9951 354.104 12.0635 354.446 12.0635C354.866 12.0635 355.21 11.9746 355.479 11.7969C355.752 11.6191 355.971 11.3844 356.135 11.0928C356.299 10.8011 356.426 10.4844 356.518 10.1426V8.49512C356.463 8.24447 356.383 8.00293 356.278 7.77051C356.178 7.53353 356.046 7.32389 355.882 7.1416C355.722 6.95475 355.524 6.80664 355.287 6.69727C355.055 6.58789 354.779 6.5332 354.46 6.5332C354.114 6.5332 353.815 6.60612 353.564 6.75195C353.318 6.89323 353.116 7.08919 352.956 7.33984C352.797 7.58594 352.678 7.87305 352.601 8.20117C352.528 8.52474 352.491 8.87109 352.491 9.24023ZM363.743 11.0381C363.743 10.8558 363.702 10.6872 363.62 10.5322C363.543 10.3727 363.381 10.2292 363.135 10.1016C362.893 9.9694 362.529 9.85547 362.041 9.75977C361.631 9.67318 361.259 9.57064 360.927 9.45215C360.599 9.33366 360.318 9.1901 360.086 9.02148C359.858 8.85286 359.683 8.65462 359.56 8.42676C359.437 8.19889 359.375 7.93229 359.375 7.62695C359.375 7.33529 359.439 7.05957 359.566 6.7998C359.699 6.54004 359.883 6.3099 360.12 6.10938C360.362 5.90885 360.651 5.75163 360.988 5.6377C361.326 5.52376 361.701 5.4668 362.116 5.4668C362.709 5.4668 363.215 5.57161 363.634 5.78125C364.053 5.99089 364.374 6.27116 364.598 6.62207C364.821 6.96842 364.933 7.35352 364.933 7.77734H363.668C363.668 7.57227 363.606 7.37402 363.483 7.18262C363.365 6.98665 363.189 6.82487 362.957 6.69727C362.729 6.56966 362.449 6.50586 362.116 6.50586C361.765 6.50586 361.48 6.56055 361.262 6.66992C361.048 6.77474 360.89 6.90918 360.79 7.07324C360.694 7.2373 360.646 7.41048 360.646 7.59277C360.646 7.72949 360.669 7.85254 360.715 7.96191C360.765 8.06673 360.852 8.16471 360.975 8.25586C361.098 8.34245 361.271 8.42448 361.494 8.50195C361.717 8.57943 362.002 8.6569 362.349 8.73438C362.955 8.87109 363.454 9.03516 363.846 9.22656C364.238 9.41797 364.529 9.65267 364.721 9.93066C364.912 10.2087 365.008 10.5459 365.008 10.9424C365.008 11.266 364.939 11.5622 364.803 11.8311C364.671 12.0999 364.477 12.3324 364.222 12.5283C363.971 12.7197 363.67 12.8701 363.319 12.9795C362.973 13.0843 362.583 13.1367 362.15 13.1367C361.499 13.1367 360.947 13.0205 360.496 12.7881C360.045 12.5557 359.703 12.2549 359.471 11.8857C359.238 11.5166 359.122 11.127 359.122 10.7168H360.394C360.412 11.0632 360.512 11.3389 360.694 11.5439C360.877 11.7445 361.1 11.888 361.364 11.9746C361.629 12.0566 361.891 12.0977 362.15 12.0977C362.497 12.0977 362.786 12.0521 363.019 11.9609C363.256 11.8698 363.436 11.7445 363.559 11.585C363.682 11.4255 363.743 11.2432 363.743 11.0381Z" fill="#7B7E86"/>
<path d="M413.191 11.9268V13H408.215V11.9268H413.191ZM408.475 3.04688V13H407.155V3.04688H408.475ZM417.58 13.1367C417.065 13.1367 416.598 13.0501 416.179 12.877C415.764 12.6992 415.406 12.4508 415.105 12.1318C414.809 11.8128 414.581 11.4346 414.422 10.9971C414.262 10.5596 414.183 10.0811 414.183 9.56152V9.27441C414.183 8.67285 414.271 8.13737 414.449 7.66797C414.627 7.19401 414.868 6.79297 415.174 6.46484C415.479 6.13672 415.826 5.88835 416.213 5.71973C416.6 5.55111 417.001 5.4668 417.416 5.4668C417.945 5.4668 418.4 5.55794 418.783 5.74023C419.171 5.92253 419.487 6.17773 419.733 6.50586C419.979 6.82943 420.162 7.21224 420.28 7.6543C420.399 8.0918 420.458 8.57031 420.458 9.08984V9.65723H414.935V8.625H419.193V8.5293C419.175 8.20117 419.107 7.88216 418.988 7.57227C418.874 7.26237 418.692 7.00716 418.441 6.80664C418.191 6.60612 417.849 6.50586 417.416 6.50586C417.129 6.50586 416.865 6.56738 416.623 6.69043C416.382 6.80892 416.174 6.98665 416.001 7.22363C415.828 7.46061 415.693 7.75 415.598 8.0918C415.502 8.43359 415.454 8.8278 415.454 9.27441V9.56152C415.454 9.91243 415.502 10.2428 415.598 10.5527C415.698 10.8581 415.841 11.127 416.028 11.3594C416.22 11.5918 416.45 11.7741 416.719 11.9062C416.992 12.0384 417.302 12.1045 417.648 12.1045C418.095 12.1045 418.473 12.0133 418.783 11.8311C419.093 11.6488 419.364 11.4049 419.597 11.0996L420.362 11.708C420.203 11.9495 420 12.1797 419.754 12.3984C419.508 12.6172 419.205 12.7949 418.845 12.9316C418.489 13.0684 418.068 13.1367 417.58 13.1367ZM426.727 5.60352H427.875V12.8428C427.875 13.4945 427.743 14.0505 427.479 14.5107C427.214 14.971 426.845 15.3197 426.371 15.5566C425.902 15.7982 425.359 15.9189 424.744 15.9189C424.489 15.9189 424.188 15.8779 423.842 15.7959C423.5 15.7184 423.163 15.584 422.83 15.3926C422.502 15.2057 422.226 14.9528 422.003 14.6338L422.666 13.8818C422.976 14.2555 423.299 14.5153 423.637 14.6611C423.979 14.807 424.316 14.8799 424.648 14.8799C425.049 14.8799 425.396 14.8047 425.688 14.6543C425.979 14.5039 426.205 14.2806 426.364 13.9844C426.528 13.6927 426.61 13.3327 426.61 12.9043V7.23047L426.727 5.60352ZM421.634 9.38379V9.24023C421.634 8.67513 421.7 8.16243 421.832 7.70215C421.969 7.2373 422.162 6.83854 422.413 6.50586C422.668 6.17318 422.976 5.91797 423.336 5.74023C423.696 5.55794 424.102 5.4668 424.553 5.4668C425.018 5.4668 425.423 5.54883 425.77 5.71289C426.12 5.8724 426.417 6.1071 426.658 6.41699C426.904 6.72233 427.098 7.09147 427.239 7.52441C427.381 7.95736 427.479 8.44727 427.533 8.99414V9.62305C427.483 10.1654 427.385 10.653 427.239 11.0859C427.098 11.5189 426.904 11.888 426.658 12.1934C426.417 12.4987 426.12 12.7334 425.77 12.8975C425.419 13.057 425.008 13.1367 424.539 13.1367C424.097 13.1367 423.696 13.0433 423.336 12.8564C422.98 12.6696 422.675 12.4076 422.42 12.0703C422.165 11.7331 421.969 11.3366 421.832 10.8809C421.7 10.4206 421.634 9.92155 421.634 9.38379ZM422.898 9.24023V9.38379C422.898 9.75293 422.935 10.0993 423.008 10.4229C423.085 10.7464 423.201 11.0312 423.356 11.2773C423.516 11.5234 423.719 11.7171 423.965 11.8584C424.211 11.9951 424.505 12.0635 424.847 12.0635C425.266 12.0635 425.612 11.9746 425.886 11.7969C426.159 11.6191 426.376 11.3844 426.535 11.0928C426.699 10.8011 426.827 10.4844 426.918 10.1426V8.49512C426.868 8.24447 426.79 8.00293 426.686 7.77051C426.585 7.53353 426.453 7.32389 426.289 7.1416C426.13 6.95475 425.931 6.80664 425.694 6.69727C425.457 6.58789 425.179 6.5332 424.86 6.5332C424.514 6.5332 424.215 6.60612 423.965 6.75195C423.719 6.89323 423.516 7.08919 423.356 7.33984C423.201 7.58594 423.085 7.87305 423.008 8.20117C422.935 8.52474 422.898 8.87109 422.898 9.24023ZM434.157 11.7354V7.92773C434.157 7.63607 434.098 7.38314 433.979 7.16895C433.866 6.9502 433.692 6.78158 433.46 6.66309C433.228 6.5446 432.94 6.48535 432.599 6.48535C432.28 6.48535 431.999 6.54004 431.758 6.64941C431.521 6.75879 431.334 6.90234 431.197 7.08008C431.065 7.25781 430.999 7.44922 430.999 7.6543H429.734C429.734 7.38997 429.803 7.12793 429.939 6.86816C430.076 6.6084 430.272 6.3737 430.527 6.16406C430.787 5.94987 431.097 5.78125 431.457 5.6582C431.822 5.5306 432.227 5.4668 432.674 5.4668C433.212 5.4668 433.686 5.55794 434.096 5.74023C434.51 5.92253 434.834 6.19824 435.066 6.56738C435.303 6.93197 435.422 7.38997 435.422 7.94141V11.3867C435.422 11.6328 435.442 11.8949 435.483 12.1729C435.529 12.4508 435.595 12.6901 435.682 12.8906V13H434.362C434.299 12.8542 434.248 12.6605 434.212 12.4189C434.175 12.1729 434.157 11.945 434.157 11.7354ZM434.376 8.51562L434.39 9.4043H433.111C432.751 9.4043 432.43 9.43392 432.147 9.49316C431.865 9.54785 431.628 9.63216 431.437 9.74609C431.245 9.86003 431.099 10.0036 430.999 10.1768C430.899 10.3454 430.849 10.5436 430.849 10.7715C430.849 11.0039 430.901 11.2158 431.006 11.4072C431.111 11.5986 431.268 11.7513 431.478 11.8652C431.692 11.9746 431.954 12.0293 432.264 12.0293C432.651 12.0293 432.993 11.9473 433.289 11.7832C433.585 11.6191 433.82 11.4186 433.993 11.1816C434.171 10.9447 434.267 10.7145 434.28 10.4912L434.82 11.0996C434.788 11.291 434.702 11.5029 434.561 11.7354C434.419 11.9678 434.23 12.1911 433.993 12.4053C433.761 12.6149 433.483 12.7904 433.159 12.9316C432.84 13.0684 432.48 13.1367 432.079 13.1367C431.578 13.1367 431.138 13.0387 430.76 12.8428C430.386 12.6468 430.094 12.3848 429.885 12.0566C429.68 11.724 429.577 11.3525 429.577 10.9424C429.577 10.5459 429.655 10.1973 429.81 9.89648C429.965 9.59115 430.188 9.33822 430.479 9.1377C430.771 8.93262 431.122 8.77767 431.532 8.67285C431.942 8.56803 432.4 8.51562 432.906 8.51562H434.376ZM438.785 2.5V13H437.514V2.5H438.785Z" fill="#7B7E86"/>
<path d="M486.46 10.4844C486.46 10.252 486.424 10.0469 486.351 9.86914C486.282 9.68685 486.159 9.52279 485.981 9.37695C485.808 9.23112 485.567 9.09212 485.257 8.95996C484.951 8.8278 484.564 8.69336 484.095 8.55664C483.603 8.41081 483.158 8.24902 482.762 8.07129C482.365 7.889 482.026 7.68164 481.743 7.44922C481.461 7.2168 481.244 6.9502 481.094 6.64941C480.943 6.34863 480.868 6.00456 480.868 5.61719C480.868 5.22982 480.948 4.87207 481.107 4.54395C481.267 4.21582 481.495 3.93099 481.791 3.68945C482.092 3.44336 482.45 3.25195 482.864 3.11523C483.279 2.97852 483.742 2.91016 484.252 2.91016C484.999 2.91016 485.633 3.05371 486.152 3.34082C486.676 3.62337 487.075 3.99479 487.349 4.45508C487.622 4.91081 487.759 5.39844 487.759 5.91797H486.446C486.446 5.54427 486.367 5.21387 486.207 4.92676C486.048 4.63509 485.806 4.40723 485.482 4.24316C485.159 4.07454 484.749 3.99023 484.252 3.99023C483.783 3.99023 483.395 4.06087 483.09 4.20215C482.785 4.34342 482.557 4.53483 482.406 4.77637C482.26 5.0179 482.188 5.29362 482.188 5.60352C482.188 5.81315 482.231 6.00456 482.317 6.17773C482.409 6.34635 482.548 6.50358 482.734 6.64941C482.926 6.79525 483.167 6.92969 483.459 7.05273C483.755 7.17578 484.108 7.29427 484.519 7.4082C485.084 7.56771 485.571 7.74544 485.981 7.94141C486.392 8.13737 486.729 8.3584 486.993 8.60449C487.262 8.84603 487.46 9.12174 487.588 9.43164C487.72 9.73698 487.786 10.0833 487.786 10.4707C487.786 10.8763 487.704 11.2432 487.54 11.5713C487.376 11.8994 487.141 12.1797 486.836 12.4121C486.531 12.6445 486.164 12.8245 485.735 12.9521C485.312 13.0752 484.838 13.1367 484.313 13.1367C483.853 13.1367 483.4 13.0729 482.953 12.9453C482.511 12.8177 482.108 12.6263 481.743 12.3711C481.383 12.1159 481.094 11.8014 480.875 11.4277C480.661 11.0495 480.554 10.612 480.554 10.1152H481.866C481.866 10.457 481.932 10.751 482.064 10.9971C482.197 11.2386 482.377 11.4391 482.604 11.5986C482.837 11.7581 483.099 11.8766 483.391 11.9541C483.687 12.027 483.994 12.0635 484.313 12.0635C484.774 12.0635 485.163 11.9997 485.482 11.8721C485.801 11.7445 486.043 11.5622 486.207 11.3252C486.376 11.0882 486.46 10.8079 486.46 10.4844ZM490.65 5.60352V13H489.379V5.60352H490.65ZM489.283 3.6416C489.283 3.43652 489.345 3.26335 489.468 3.12207C489.595 2.98079 489.782 2.91016 490.028 2.91016C490.27 2.91016 490.454 2.98079 490.582 3.12207C490.714 3.26335 490.78 3.43652 490.78 3.6416C490.78 3.83757 490.714 4.00618 490.582 4.14746C490.454 4.28418 490.27 4.35254 490.028 4.35254C489.782 4.35254 489.595 4.28418 489.468 4.14746C489.345 4.00618 489.283 3.83757 489.283 3.6416ZM495.777 5.60352V6.57422H491.778V5.60352H495.777ZM493.132 3.80566H494.396V11.168C494.396 11.4186 494.435 11.6077 494.513 11.7354C494.59 11.863 494.69 11.9473 494.813 11.9883C494.937 12.0293 495.069 12.0498 495.21 12.0498C495.315 12.0498 495.424 12.0407 495.538 12.0225C495.657 11.9997 495.745 11.9814 495.805 11.9678L495.812 13C495.711 13.0319 495.579 13.0615 495.415 13.0889C495.256 13.1208 495.062 13.1367 494.834 13.1367C494.524 13.1367 494.239 13.0752 493.979 12.9521C493.72 12.8291 493.512 12.624 493.357 12.3369C493.207 12.0452 493.132 11.6533 493.132 11.1611V3.80566ZM500.33 13.1367C499.815 13.1367 499.348 13.0501 498.929 12.877C498.514 12.6992 498.156 12.4508 497.855 12.1318C497.559 11.8128 497.331 11.4346 497.172 10.9971C497.012 10.5596 496.933 10.0811 496.933 9.56152V9.27441C496.933 8.67285 497.021 8.13737 497.199 7.66797C497.377 7.19401 497.618 6.79297 497.924 6.46484C498.229 6.13672 498.576 5.88835 498.963 5.71973C499.35 5.55111 499.751 5.4668 500.166 5.4668C500.695 5.4668 501.15 5.55794 501.533 5.74023C501.921 5.92253 502.237 6.17773 502.483 6.50586C502.729 6.82943 502.912 7.21224 503.03 7.6543C503.149 8.0918 503.208 8.57031 503.208 9.08984V9.65723H497.685V8.625H501.943V8.5293C501.925 8.20117 501.857 7.88216 501.738 7.57227C501.624 7.26237 501.442 7.00716 501.191 6.80664C500.941 6.60612 500.599 6.50586 500.166 6.50586C499.879 6.50586 499.615 6.56738 499.373 6.69043C499.132 6.80892 498.924 6.98665 498.751 7.22363C498.578 7.46061 498.443 7.75 498.348 8.0918C498.252 8.43359 498.204 8.8278 498.204 9.27441V9.56152C498.204 9.91243 498.252 10.2428 498.348 10.5527C498.448 10.8581 498.591 11.127 498.778 11.3594C498.97 11.5918 499.2 11.7741 499.469 11.9062C499.742 12.0384 500.052 12.1045 500.398 12.1045C500.845 12.1045 501.223 12.0133 501.533 11.8311C501.843 11.6488 502.114 11.4049 502.347 11.0996L503.112 11.708C502.953 11.9495 502.75 12.1797 502.504 12.3984C502.258 12.6172 501.955 12.7949 501.595 12.9316C501.239 13.0684 500.818 13.1367 500.33 13.1367ZM508.766 3.04688H510.044L513.305 11.1611L516.559 3.04688H517.844L513.797 13H512.799L508.766 3.04688ZM508.349 3.04688H509.477L509.661 9.11719V13H508.349V3.04688ZM517.126 3.04688H518.254V13H516.941V9.11719L517.126 3.04688ZM524.741 11.7354V7.92773C524.741 7.63607 524.682 7.38314 524.563 7.16895C524.45 6.9502 524.276 6.78158 524.044 6.66309C523.812 6.5446 523.524 6.48535 523.183 6.48535C522.864 6.48535 522.583 6.54004 522.342 6.64941C522.105 6.75879 521.918 6.90234 521.781 7.08008C521.649 7.25781 521.583 7.44922 521.583 7.6543H520.318C520.318 7.38997 520.387 7.12793 520.523 6.86816C520.66 6.6084 520.856 6.3737 521.111 6.16406C521.371 5.94987 521.681 5.78125 522.041 5.6582C522.406 5.5306 522.811 5.4668 523.258 5.4668C523.796 5.4668 524.27 5.55794 524.68 5.74023C525.094 5.92253 525.418 6.19824 525.65 6.56738C525.887 6.93197 526.006 7.38997 526.006 7.94141V11.3867C526.006 11.6328 526.026 11.8949 526.067 12.1729C526.113 12.4508 526.179 12.6901 526.266 12.8906V13H524.946C524.882 12.8542 524.832 12.6605 524.796 12.4189C524.759 12.1729 524.741 11.945 524.741 11.7354ZM524.96 8.51562L524.974 9.4043H523.695C523.335 9.4043 523.014 9.43392 522.731 9.49316C522.449 9.54785 522.212 9.63216 522.021 9.74609C521.829 9.86003 521.683 10.0036 521.583 10.1768C521.483 10.3454 521.433 10.5436 521.433 10.7715C521.433 11.0039 521.485 11.2158 521.59 11.4072C521.695 11.5986 521.852 11.7513 522.062 11.8652C522.276 11.9746 522.538 12.0293 522.848 12.0293C523.235 12.0293 523.577 11.9473 523.873 11.7832C524.169 11.6191 524.404 11.4186 524.577 11.1816C524.755 10.9447 524.851 10.7145 524.864 10.4912L525.404 11.0996C525.372 11.291 525.286 11.5029 525.145 11.7354C525.003 11.9678 524.814 12.1911 524.577 12.4053C524.345 12.6149 524.067 12.7904 523.743 12.9316C523.424 13.0684 523.064 13.1367 522.663 13.1367C522.162 13.1367 521.722 13.0387 521.344 12.8428C520.97 12.6468 520.678 12.3848 520.469 12.0566C520.264 11.724 520.161 11.3525 520.161 10.9424C520.161 10.5459 520.239 10.1973 520.394 9.89648C520.549 9.59115 520.772 9.33822 521.063 9.1377C521.355 8.93262 521.706 8.77767 522.116 8.67285C522.526 8.56803 522.984 8.51562 523.49 8.51562H524.96ZM529.26 7.02539V15.8438H527.988V5.60352H529.15L529.26 7.02539ZM534.243 9.24023V9.38379C534.243 9.92155 534.179 10.4206 534.052 10.8809C533.924 11.3366 533.737 11.7331 533.491 12.0703C533.25 12.4076 532.951 12.6696 532.596 12.8564C532.24 13.0433 531.832 13.1367 531.372 13.1367C530.903 13.1367 530.488 13.0592 530.128 12.9043C529.768 12.7493 529.463 12.5238 529.212 12.2275C528.961 11.9313 528.761 11.5758 528.61 11.1611C528.465 10.7464 528.364 10.2793 528.31 9.75977V8.99414C528.364 8.44727 528.467 7.95736 528.617 7.52441C528.768 7.09147 528.966 6.72233 529.212 6.41699C529.463 6.1071 529.766 5.8724 530.121 5.71289C530.477 5.54883 530.887 5.4668 531.352 5.4668C531.816 5.4668 532.229 5.55794 532.589 5.74023C532.949 5.91797 533.252 6.17318 533.498 6.50586C533.744 6.83854 533.929 7.2373 534.052 7.70215C534.179 8.16243 534.243 8.67513 534.243 9.24023ZM532.972 9.38379V9.24023C532.972 8.87109 532.933 8.52474 532.855 8.20117C532.778 7.87305 532.657 7.58594 532.493 7.33984C532.334 7.08919 532.129 6.89323 531.878 6.75195C531.627 6.60612 531.329 6.5332 530.982 6.5332C530.663 6.5332 530.385 6.58789 530.148 6.69727C529.916 6.80664 529.718 6.95475 529.554 7.1416C529.39 7.32389 529.255 7.53353 529.15 7.77051C529.05 8.00293 528.975 8.24447 528.925 8.49512V10.2656C529.016 10.5846 529.144 10.8854 529.308 11.168C529.472 11.446 529.69 11.6715 529.964 11.8447C530.237 12.0133 530.581 12.0977 530.996 12.0977C531.338 12.0977 531.632 12.027 531.878 11.8857C532.129 11.7399 532.334 11.5417 532.493 11.291C532.657 11.0404 532.778 10.7533 532.855 10.4297C532.933 10.1016 532.972 9.75293 532.972 9.38379Z" fill="#7B7E86"/>
</svg>
